<?xml version="1.0" encoding="UTF-8" standalone="no"?>
<!-- Generator: Adobe Illustrator 19.0.0, SVG Export Plug-In . SVG Version: 6.00 Build 0)  -->

<svg
   xmlns:dc="http://purl.org/dc/elements/1.1/"
   xmlns:cc="http://creativecommons.org/ns#"
   xmlns:rdf="http://www.w3.org/1999/02/22-rdf-syntax-ns#"
   xmlns:svg="http://www.w3.org/2000/svg"
   xmlns="http://www.w3.org/2000/svg"
   xmlns:sodipodi="http://sodipodi.sourceforge.net/DTD/sodipodi-0.dtd"
   xmlns:inkscape="http://www.inkscape.org/namespaces/inkscape"
   version="1.1"
   id="Capa_1"
   x="0px"
   y="0px"
   viewBox="0 0 36.582924 63.999996"
   xml:space="preserve"
   sodipodi:docname="mic-hover.svg"
   width="36.582924"
   height="63.999996"
   inkscape:version="0.92.5 (2060ec1f9f, 2020-04-08)"><metadata
   id="metadata6491"><rdf:RDF><cc:Work
       rdf:about=""><dc:format>image/svg+xml</dc:format><dc:type
         rdf:resource="http://purl.org/dc/dcmitype/StillImage" /><dc:title /></cc:Work></rdf:RDF></metadata><defs
   id="defs6489" /><sodipodi:namedview
   pagecolor="#ffffff"
   bordercolor="#666666"
   borderopacity="1"
   objecttolerance="10"
   gridtolerance="10"
   guidetolerance="10"
   inkscape:pageopacity="0"
   inkscape:pageshadow="2"
   inkscape:window-width="1918"
   inkscape:window-height="1058"
   id="namedview6487"
   showgrid="false"
   fit-margin-top="0"
   fit-margin-left="0"
   fit-margin-right="0"
   fit-margin-bottom="0"
   inkscape:zoom="10.429825"
   inkscape:cx="29.550791"
   inkscape:cy="25.49894"
   inkscape:window-x="0"
   inkscape:window-y="20"
   inkscape:window-maximized="1"
   inkscape:current-layer="Capa_1" />
<g
   id="g6448"
   transform="matrix(0.12589352,0,0,0.12589352,-13.664154,-0.45748426)"
   style="fill:#ffb938;fill-opacity:1;stroke:#ffb938;stroke-opacity:1">
	<g
   id="g6446"
   style="fill:#ffb938;fill-opacity:1;stroke:#ffb938;stroke-opacity:1">
		<path
   d="m 399.12363,166.8103 c 0,-8.284 -6.716,-15 -15,-15 -8.284,0 -15.78801,6.75357 -15,15 C 383.82149,320.62154 336.32,385.6 256,385.6 c -80.32,0 -136.926,-86.16454 -117.46261,-217.70496 1.21254,-8.19478 -6.716,-15 -15,-15 -8.284,0 -15,6.716 -15,15 C 108.53739,334.02027 151.134,407.317 241,414.952 v 56.77778 h -89.20544 c -8.284,0 -15,10.51273 -15,18.79673 0,8.284 6.716,21.47349 15,21.47349 h 209.48992 c 8.284,0 15,-13.18949 15,-21.47349 0,-8.284 -6.716,-18.79673 -15,-18.79673 H 271 V 414.952 c 89.866,-7.636 128.12363,-89.55679 128.12363,-248.1417 z"
   id="path6444"
   inkscape:connector-curvature="0"
   style="fill:#ffb938;fill-opacity:1;stroke:#ffb938;stroke-opacity:1"
   sodipodi:nodetypes="sssssssccssssssccs" />
	</g>
</g>
<g
   id="g6454"
   transform="matrix(0.12589352,0,0,0.12589352,-13.664154,-0.45748426)"
   style="fill:#f5deb3;fill-opacity:1;stroke:#ffb938;stroke-width:0.80000001;stroke-linecap:butt;stroke-linejoin:round;stroke-miterlimit:4;stroke-dasharray:none;stroke-opacity:1;paint-order:markers fill stroke">
	<g
   id="g6452"
   style="fill:#f5deb3;fill-opacity:1;stroke:#ffb938;stroke-width:0.80000001;stroke-linecap:butt;stroke-linejoin:round;stroke-miterlimit:4;stroke-dasharray:none;stroke-opacity:1;paint-order:markers fill stroke">
		<path
   d="m 255.999,26.033898 c -43.707,0 -79.266,35.559 -79.266,79.267002 v 160.667 c 0,43.708 35.559,79.266 79.266,79.266 43.708,0 79.268,-35.559 79.268,-79.267 v -160.666 c 0,-43.708002 -35.56,-79.267002 -79.268,-79.267002 z"
   id="path6450"
   inkscape:connector-curvature="0"
   style="fill:none;fill-opacity:1;stroke:#ffb938;stroke-width:36.06222147;stroke-linecap:butt;stroke-linejoin:round;stroke-miterlimit:4;stroke-dasharray:none;stroke-opacity:1;paint-order:markers fill stroke"
   sodipodi:nodetypes="sssssss" />
	</g>
</g>
<g
   id="g6456"
   transform="translate(-83.859423,-448)">
</g>
<g
   id="g6458"
   transform="translate(-83.859423,-448)">
</g>
<g
   id="g6460"
   transform="translate(-83.859423,-448)">
</g>
<g
   id="g6462"
   transform="translate(-83.859423,-448)">
</g>
<g
   id="g6464"
   transform="translate(-83.859423,-448)">
</g>
<g
   id="g6466"
   transform="translate(-83.859423,-448)">
</g>
<g
   id="g6468"
   transform="translate(-83.859423,-448)">
</g>
<g
   id="g6470"
   transform="translate(-83.859423,-448)">
</g>
<g
   id="g6472"
   transform="translate(-83.859423,-448)">
</g>
<g
   id="g6474"
   transform="translate(-83.859423,-448)">
</g>
<g
   id="g6476"
   transform="translate(-83.859423,-448)">
</g>
<g
   id="g6478"
   transform="translate(-83.859423,-448)">
</g>
<g
   id="g6480"
   transform="translate(-83.859423,-448)">
</g>
<g
   id="g6482"
   transform="translate(-83.859423,-448)">
</g>
<g
   id="g6484"
   transform="translate(-83.859423,-448)">
</g>
</svg>