<?xml version="1.0" encoding="UTF-8" standalone="no"?>
<svg
   xmlns:dc="http://purl.org/dc/elements/1.1/"
   xmlns:cc="http://creativecommons.org/ns#"
   xmlns:rdf="http://www.w3.org/1999/02/22-rdf-syntax-ns#"
   xmlns:svg="http://www.w3.org/2000/svg"
   xmlns="http://www.w3.org/2000/svg"
   xmlns:sodipodi="http://sodipodi.sourceforge.net/DTD/sodipodi-0.dtd"
   xmlns:inkscape="http://www.inkscape.org/namespaces/inkscape"
   version="1.1"
   id="Capa_1"
   x="0px"
   y="0px"
   viewBox="0 0 58.598778 64"
   xml:space="preserve"
   sodipodi:docname="search-lens.svg"
   inkscape:version="0.92.5 (2060ec1f9f, 2020-04-08)"
   width="58.598778"
   height="64"><metadata
   id="metadata4711"><rdf:RDF><cc:Work
       rdf:about=""><dc:format>image/svg+xml</dc:format><dc:type
         rdf:resource="http://purl.org/dc/dcmitype/StillImage" /><dc:title></dc:title></cc:Work></rdf:RDF></metadata><defs
   id="defs4709" /><sodipodi:namedview
   pagecolor="#ffffff"
   bordercolor="#666666"
   borderopacity="1"
   objecttolerance="10"
   gridtolerance="10"
   guidetolerance="10"
   inkscape:pageopacity="0"
   inkscape:pageshadow="2"
   inkscape:window-width="1918"
   inkscape:window-height="1058"
   id="namedview4707"
   showgrid="false"
   inkscape:zoom="3.6875"
   inkscape:cx="-1.220339"
   inkscape:cy="32"
   inkscape:window-x="0"
   inkscape:window-y="20"
   inkscape:window-maximized="1"
   inkscape:current-layer="Capa_1"
   fit-margin-top="0"
   fit-margin-left="0"
   fit-margin-right="0"
   fit-margin-bottom="0" />
<g
   id="g4704"
   transform="matrix(1.1653509,0,0,1.1653509,-2.7010842,-1.0374867e-4)">
	<path
   style="fill:#f5deb3"
   d="m 46.179,4.286 c -7.645,-6.464 -19.082,-5.508 -25.547,2.136 -5.081,6.008 -5.566,14.35 -1.833,20.787 0.831,1.433 0.846,3.483 -0.224,4.748 l -0.758,0.896 c -1.069,1.265 -1.764,2.437 -2.493,1.82 -0.729,-0.616 -2.187,-0.09 -3.257,1.175 l -9.04,10.69 c -1.07,1.265 -0.911,3.158 0.354,4.228 l 4.072,3.444 c 1.265,1.07 3.158,0.911 4.228,-0.354 l 9.04,-10.69 c 1.07,-1.265 1.346,-2.791 0.617,-3.407 -0.729,-0.616 0.312,-1.496 1.381,-2.761 l 0.757,-0.896 c 1.07,-1.265 3.094,-1.591 4.646,-1.01 6.967,2.611 15.113,0.747 20.193,-5.261 C 54.781,22.189 53.824,10.75 46.179,4.286 Z M 24.293,9.519 c 4.755,-5.623 13.168,-6.326 18.79,-1.571 5.623,4.754 6.327,13.168 1.572,18.79 C 39.9,32.361 31.487,33.064 25.864,28.309 20.242,23.554 19.539,15.142 24.293,9.519 Z"
   id="path4702"
   inkscape:connector-curvature="0" />
</g>
</svg>